<svg width="193" height="124" viewBox="0 0 193 124" fill="none" xmlns="http://www.w3.org/2000/svg">
<rect width="193" height="124" rx="5" fill="white"/>
<path d="M96.5 36C101.471 36 105.5 31.9706 105.5 27C105.5 22.0294 101.471 18 96.5 18C91.5294 18 87.5 22.0294 87.5 27C87.5 31.9706 91.5294 36 96.5 36Z" stroke="#F9C764" stroke-width="1.5" stroke-linecap="round" stroke-linejoin="round"/>
<path d="M91.952 38.0099L90.5 45L96.5 42.0305L102.5 45L101.048 38" stroke="#F9C764" stroke-width="1.5" stroke-linecap="round" stroke-linejoin="round"/>
<path d="M60.6688 68H59.1609V58.1406H52.7625V68H51.2547V56.7969H60.6688V68ZM63.56 67.0391C62.7475 66.2943 62.3413 65.3073 62.3413 64.0781C62.3413 62.8542 62.7475 61.8672 63.56 61.1172C64.3673 60.3724 65.3959 60 66.6459 60C67.8855 60 68.9142 60.3724 69.7319 61.1172C70.5392 61.8672 70.9428 62.8542 70.9428 64.0781C70.9428 65.3073 70.5392 66.2943 69.7319 67.0391C68.9142 67.7839 67.8855 68.1562 66.6459 68.1562C65.3959 68.1562 64.3673 67.7839 63.56 67.0391ZM68.7475 66.0938C69.2735 65.5677 69.5366 64.8958 69.5366 64.0781C69.5366 63.2604 69.2735 62.5885 68.7475 62.0625C68.2215 61.5417 67.5209 61.2812 66.6459 61.2812C65.7657 61.2812 65.0652 61.5417 64.5444 62.0625C64.0131 62.5833 63.7475 63.2552 63.7475 64.0781C63.7475 64.901 64.0131 65.5729 64.5444 66.0938C65.0704 66.6198 65.7709 66.8828 66.6459 66.8828C67.5105 66.8828 68.211 66.6198 68.7475 66.0938ZM76.795 59.1484C75.6075 59.1484 74.7429 59.4609 74.2012 60.0859C73.6596 60.7161 73.3887 61.4453 73.3887 62.2734H73.4512C73.5242 62.1172 73.6518 61.9375 73.8341 61.7344C74.0007 61.5521 74.1908 61.3958 74.4044 61.2656C74.6492 61.1198 74.9695 60.9948 75.3653 60.8906C75.7611 60.7865 76.183 60.7344 76.6309 60.7344C77.8236 60.7344 78.7846 61.0755 79.5137 61.7578C80.2377 62.4349 80.5997 63.3255 80.5997 64.4297C80.5997 65.5286 80.2169 66.4245 79.4512 67.1172C78.6804 67.8099 77.6674 68.1562 76.4122 68.1562C75.1101 68.1562 74.0632 67.7135 73.2716 66.8281C72.4747 65.9427 72.0762 64.7656 72.0762 63.2969V62.7344C72.0762 61.2344 72.4539 60.0495 73.2091 59.1797C73.9695 58.3099 75.0789 57.875 76.5372 57.875C77.1934 57.875 77.6648 57.7917 77.9512 57.625C78.2377 57.4583 78.3809 57.1823 78.3809 56.7969H79.8184C79.8184 57.4427 79.6414 57.974 79.2872 58.3906C78.8549 58.8958 78.0242 59.1484 76.795 59.1484ZM78.42 66.1953C78.9356 65.7318 79.1934 65.1432 79.1934 64.4297C79.1934 63.7161 78.9356 63.1354 78.42 62.6875C77.894 62.2396 77.2143 62.0156 76.3809 62.0156C75.6205 62.0156 74.9773 62.25 74.4512 62.7188C73.9304 63.1875 73.67 63.7578 73.67 64.4297C73.67 65.112 73.9304 65.6901 74.4512 66.1641C74.9721 66.6432 75.6153 66.8828 76.3809 66.8828C77.2299 66.8828 77.9096 66.6536 78.42 66.1953ZM90.3191 64.0781L90.2722 64.7344H83.1862C83.1862 65.1823 83.4519 65.651 83.9831 66.1406C84.5092 66.6354 85.2149 66.8828 86.1003 66.8828C86.7514 66.8828 87.2852 66.7604 87.7019 66.5156C88.0456 66.3073 88.2852 66.1198 88.4206 65.9531L88.4831 65.8438H90.1003C90.0691 65.9219 90.0352 66.0026 89.9987 66.0859C89.931 66.2057 89.8034 66.3906 89.6159 66.6406C89.4128 66.9062 89.1758 67.1432 88.905 67.3516C88.6446 67.5547 88.2618 67.7396 87.7566 67.9062C87.2774 68.0729 86.7253 68.1562 86.1003 68.1562C84.8034 68.1562 83.7514 67.7865 82.9441 67.0469C82.1264 66.3073 81.7175 65.3177 81.7175 64.0781C81.7175 62.849 82.1237 61.862 82.9362 61.1172C83.7435 60.3724 84.7722 60 86.0222 60C87.2618 60 88.2904 60.3724 89.1081 61.1172C89.9154 61.862 90.3191 62.849 90.3191 64.0781ZM88.1003 62.0234C87.5795 61.5286 86.8868 61.2812 86.0222 61.2812C85.1472 61.2812 84.4545 61.5286 83.9441 62.0234C83.4284 62.5182 83.1706 63.0052 83.1706 63.4844H88.8659C88.8659 63.0052 88.6107 62.5182 88.1003 62.0234ZM92.0228 70H90.6478V66.75H91.2259C91.5697 66.75 91.8171 66.5781 91.9681 66.2344C92.1192 65.901 92.2442 65.3151 92.3431 64.4766L92.89 60.1562H98.8275V66.75H100.007V70H98.6322V68H92.0228V70ZM97.4525 61.4062H94.0931L93.6244 65.1172C93.5775 65.513 93.502 65.8516 93.3978 66.1328C93.2936 66.4141 93.1947 66.5833 93.1009 66.6406L92.9837 66.7188V66.75H97.4525V61.4062ZM108.641 68H107.258V61.7266H107.227L102.719 68H100.977V60.1562H102.352V66.4297H102.383L106.891 60.1562H108.641V68ZM112.602 61.4062H109.438V60.1562H117.149V61.4062H113.977V68.0156L112.602 68V61.4062ZM125.743 64.0781L125.697 64.7344H118.611C118.611 65.1823 118.876 65.651 119.408 66.1406C119.934 66.6354 120.639 66.8828 121.525 66.8828C122.176 66.8828 122.71 66.7604 123.126 66.5156C123.47 66.3073 123.71 66.1198 123.845 65.9531L123.908 65.8438H125.525C125.493 65.9219 125.46 66.0026 125.423 66.0859C125.355 66.2057 125.228 66.3906 125.04 66.6406C124.837 66.9062 124.6 67.1432 124.329 67.3516C124.069 67.5547 123.686 67.7396 123.181 67.9062C122.702 68.0729 122.15 68.1562 121.525 68.1562C120.228 68.1562 119.176 67.7865 118.368 67.0469C117.551 66.3073 117.142 65.3177 117.142 64.0781C117.142 62.849 117.548 61.862 118.361 61.1172C119.168 60.3724 120.197 60 121.447 60C122.686 60 123.715 60.3724 124.533 61.1172C125.34 61.862 125.743 62.849 125.743 64.0781ZM123.525 62.0234C123.004 61.5286 122.311 61.2812 121.447 61.2812C120.572 61.2812 119.879 61.5286 119.368 62.0234C118.853 62.5182 118.595 63.0052 118.595 63.4844H124.29C124.29 63.0052 124.035 62.5182 123.525 62.0234ZM127.783 64.8281L128.525 60.1562H134.486V68H133.111V61.4062H129.689L129.166 64.8281C128.984 66.0885 128.713 66.9583 128.353 67.4375C127.994 67.9167 127.497 68.1562 126.861 68.1562C126.611 68.1562 126.387 68.125 126.189 68.0625L126.072 68.0156V66.7031C126.244 66.7656 126.421 66.7969 126.603 66.7969C126.999 66.7969 127.283 66.5911 127.455 66.1797C127.57 65.9089 127.679 65.4583 127.783 64.8281ZM137.635 62.75H139.424C141.773 62.75 142.948 63.625 142.948 65.375C142.948 67.125 141.773 68 139.424 68H136.26V60.1562H137.635V62.75ZM139.424 66.7969C140.216 66.7969 140.766 66.6823 141.073 66.4531C141.38 66.224 141.534 65.8646 141.534 65.375C141.534 64.8854 141.38 64.526 141.073 64.2969C140.766 64.0677 140.216 63.9531 139.424 63.9531H137.635V66.7969H139.424ZM14.7209 85.0156C13.8928 84.276 13.4788 83.2969 13.4788 82.0781C13.4788 80.8594 13.8928 79.8802 14.7209 79.1406C15.5334 78.4062 16.6376 78.026 18.0334 78V74.7969H19.4084V78C20.7991 78.026 21.9058 78.4062 22.7288 79.1406C23.5569 79.8802 23.9709 80.8594 23.9709 82.0781C23.9709 83.2917 23.5595 84.2708 22.7366 85.0156C21.9136 85.75 20.8043 86.1302 19.4084 86.1562V89.2031H18.0334V86.1562C16.6376 86.1302 15.5334 85.75 14.7209 85.0156ZM21.7522 84.0625C22.2939 83.5365 22.5647 82.875 22.5647 82.0781C22.5647 81.2812 22.2939 80.6198 21.7522 80.0938C21.2105 79.5781 20.4293 79.3073 19.4084 79.2812V84.8828C20.4241 84.8568 21.2053 84.5833 21.7522 84.0625ZM15.6975 80.0938C15.1558 80.6198 14.885 81.2812 14.885 82.0781C14.885 82.875 15.1584 83.5365 15.7053 84.0625C16.2418 84.5833 17.0178 84.8568 18.0334 84.8828V79.2812C17.0074 79.3073 16.2288 79.5781 15.6975 80.0938ZM33.6903 82.0781L33.6434 82.7344H26.5575C26.5575 83.1823 26.8231 83.651 27.3544 84.1406C27.8804 84.6354 28.5861 84.8828 29.4716 84.8828C30.1226 84.8828 30.6565 84.7604 31.0731 84.5156C31.4169 84.3073 31.6565 84.1198 31.7919 83.9531L31.8544 83.8438H33.4716C33.4403 83.9219 33.4065 84.0026 33.37 84.0859C33.3023 84.2057 33.1747 84.3906 32.9872 84.6406C32.7841 84.9062 32.5471 85.1432 32.2763 85.3516C32.0158 85.5547 31.633 85.7396 31.1278 85.9062C30.6486 86.0729 30.0966 86.1562 29.4716 86.1562C28.1747 86.1562 27.1226 85.7865 26.3153 85.0469C25.4976 84.3073 25.0888 83.3177 25.0888 82.0781C25.0888 80.849 25.495 79.862 26.3075 79.1172C27.1148 78.3724 28.1434 78 29.3934 78C30.633 78 31.6617 78.3724 32.4794 79.1172C33.2867 79.862 33.6903 80.849 33.6903 82.0781ZM31.4716 80.0234C30.9507 79.5286 30.258 79.2812 29.3934 79.2812C28.5184 79.2812 27.8257 79.5286 27.3153 80.0234C26.7997 80.5182 26.5419 81.0052 26.5419 81.4844H32.2372C32.2372 81.0052 31.982 80.5182 31.4716 80.0234ZM35.3941 88H34.0191V84.75H34.5972C34.9409 84.75 35.1883 84.5781 35.3394 84.2344C35.4904 83.901 35.6154 83.3151 35.7144 82.4766L36.2613 78.1562H42.1988V84.75H43.3784V88H42.0034V86H35.3941V88ZM40.8238 79.4062H37.4644L36.9956 83.1172C36.9488 83.513 36.8732 83.8516 36.7691 84.1328C36.6649 84.4141 36.5659 84.5833 36.4722 84.6406L36.355 84.7188V84.75H40.8238V79.4062ZM52.6291 82.0781L52.5822 82.7344H45.4963C45.4963 83.1823 45.7619 83.651 46.2931 84.1406C46.8192 84.6354 47.5249 84.8828 48.4103 84.8828C49.0614 84.8828 49.5952 84.7604 50.0119 84.5156C50.3556 84.3073 50.5952 84.1198 50.7306 83.9531L50.7931 83.8438H52.4103C52.3791 83.9219 52.3452 84.0026 52.3088 84.0859C52.241 84.2057 52.1134 84.3906 51.9259 84.6406C51.7228 84.9062 51.4858 85.1432 51.215 85.3516C50.9546 85.5547 50.5718 85.7396 50.0666 85.9062C49.5874 86.0729 49.0353 86.1562 48.4103 86.1562C47.1134 86.1562 46.0614 85.7865 45.2541 85.0469C44.4364 84.3073 44.0275 83.3177 44.0275 82.0781C44.0275 80.849 44.4338 79.862 45.2463 79.1172C46.0535 78.3724 47.0822 78 48.3322 78C49.5718 78 50.6004 78.3724 51.4181 79.1172C52.2254 79.862 52.6291 80.849 52.6291 82.0781ZM50.4103 80.0234C49.8895 79.5286 49.1968 79.2812 48.3322 79.2812C47.4572 79.2812 46.7645 79.5286 46.2541 80.0234C45.7384 80.5182 45.4806 81.0052 45.4806 81.4844H51.1759C51.1759 81.0052 50.9207 80.5182 50.4103 80.0234ZM55.4578 89.2031H54.0828V78.1562H55.4578V79.3281H55.5203C55.6141 79.1823 55.7625 79.026 55.9656 78.8594C56.1479 78.7135 56.3432 78.5807 56.5516 78.4609C56.7755 78.3359 57.0672 78.2292 57.4266 78.1406C57.7911 78.0469 58.1583 78 58.5281 78C59.7104 78 60.7 78.375 61.4969 79.125C62.2885 79.8854 62.6844 80.8698 62.6844 82.0781C62.6844 83.2969 62.2885 84.2812 61.4969 85.0312C60.7 85.7812 59.7104 86.1562 58.5281 86.1562C57.7156 86.1562 57.0542 86 56.5438 85.6875C56.0958 85.4115 55.7911 85.1745 55.6297 84.9766L55.5203 84.8281H55.4578V89.2031ZM60.4891 84.0859C61.0151 83.5599 61.2781 82.8906 61.2781 82.0781C61.2781 81.276 61.0151 80.6068 60.4891 80.0703C59.9526 79.5443 59.2443 79.2812 58.3641 79.2812C57.4786 79.2812 56.7729 79.5443 56.2469 80.0703C55.7208 80.6068 55.4578 81.276 55.4578 82.0781C55.4578 82.9115 55.7286 83.5859 56.2703 84.1016C56.8068 84.6224 57.5047 84.8828 58.3641 84.8828C59.2495 84.8828 59.9578 84.6172 60.4891 84.0859ZM63.81 83.8047C63.81 83.0026 64.1511 82.4089 64.8334 82.0234C65.5105 81.6432 66.3803 81.4531 67.4428 81.4531C67.9845 81.4531 68.4845 81.5182 68.9428 81.6484C69.422 81.7839 69.7579 81.9115 69.9506 82.0312L70.2553 82.2266V80.9922C70.2553 80.4609 70.06 80.0443 69.6694 79.7422C69.2788 79.4349 68.6902 79.2812 67.9038 79.2812C66.336 79.2812 65.5522 79.7083 65.5522 80.5625H64.1772C64.1824 79.6979 64.534 79.0547 65.2319 78.6328C65.9246 78.2109 66.8152 78 67.9038 78C68.9975 78 69.8907 78.2552 70.5834 78.7656C71.2761 79.2812 71.6251 80.0234 71.6303 80.9922V83.8438C71.6303 84.2396 71.6824 84.5156 71.7866 84.6719C71.8907 84.8229 72.0626 84.8984 72.3022 84.8984C72.5105 84.8984 72.6485 84.8698 72.7163 84.8125L72.7475 84.7969V86.0312C72.586 86.1146 72.3517 86.1562 72.0444 86.1562C71.5235 86.1562 71.1381 86.0443 70.8881 85.8203C70.6902 85.6536 70.5444 85.4792 70.4506 85.2969L70.4116 85.2031H70.3491C70.2189 85.3333 70.086 85.4427 69.9506 85.5312C69.7892 85.6406 69.6121 85.737 69.4194 85.8203C68.909 86.0443 68.2866 86.1562 67.5522 86.1562C66.4428 86.1562 65.5418 85.9661 64.8491 85.5859C64.1564 85.2109 63.81 84.6172 63.81 83.8047ZM67.7553 82.7344C66.0626 82.7344 65.2163 83.0911 65.2163 83.8047C65.2163 84.5234 66.0626 84.8828 67.7553 84.8828C68.2553 84.8828 68.711 84.8281 69.1225 84.7188C69.5288 84.6198 69.8074 84.526 69.9584 84.4375C70.0991 84.3646 70.198 84.2995 70.2553 84.2422V83.3438C70.198 83.2865 70.0991 83.2214 69.9584 83.1484C69.7814 83.0651 69.5053 82.9766 69.1303 82.8828C68.7293 82.7839 68.2709 82.7344 67.7553 82.7344ZM74.3731 82.8281L75.1153 78.1562H81.0763V86H79.7013V79.4062H76.2794L75.7559 82.8281C75.5736 84.0885 75.3028 84.9583 74.9434 85.4375C74.5841 85.9167 74.0867 86.1562 73.4513 86.1562C73.2013 86.1562 72.9773 86.125 72.7794 86.0625L72.6622 86.0156V84.7031C72.8341 84.7656 73.0111 84.7969 73.1934 84.7969C73.5893 84.7969 73.8731 84.5911 74.045 84.1797C74.1596 83.9089 74.269 83.4583 74.3731 82.8281ZM84.2253 80.75H86.0144C88.3633 80.75 89.5378 81.625 89.5378 83.375C89.5378 85.125 88.3633 86 86.0144 86H82.8503V78.1562H84.2253V80.75ZM86.0144 84.7969C86.806 84.7969 87.3555 84.6823 87.6628 84.4531C87.9701 84.224 88.1237 83.8646 88.1237 83.375C88.1237 82.8854 87.9701 82.526 87.6628 82.2969C87.3555 82.0677 86.806 81.9531 86.0144 81.9531H84.2253V84.7969H86.0144ZM98.64 86H97.2572V82.6094H92.3509V86H90.9759V78.1562H92.3509V81.3594H97.2572V78.1562H98.64V86ZM101.297 85.0391C100.484 84.2943 100.078 83.3073 100.078 82.0781C100.078 80.8542 100.484 79.8672 101.297 79.1172C102.104 78.3724 103.133 78 104.383 78C105.622 78 106.651 78.3724 107.469 79.1172C108.276 79.8672 108.68 80.8542 108.68 82.0781C108.68 83.3073 108.276 84.2943 107.469 85.0391C106.651 85.7839 105.622 86.1562 104.383 86.1562C103.133 86.1562 102.104 85.7839 101.297 85.0391ZM106.484 84.0938C107.01 83.5677 107.273 82.8958 107.273 82.0781C107.273 81.2604 107.01 80.5885 106.484 80.0625C105.958 79.5417 105.258 79.2812 104.383 79.2812C103.503 79.2812 102.802 79.5417 102.281 80.0625C101.75 80.5833 101.484 81.2552 101.484 82.0781C101.484 82.901 101.75 83.5729 102.281 84.0938C102.807 84.6198 103.508 84.8828 104.383 84.8828C105.247 84.8828 105.948 84.6198 106.484 84.0938ZM115.587 76.5625C115.206 76.8802 114.662 77.0391 113.954 77.0391C113.245 77.0391 112.701 76.8802 112.321 76.5625C111.936 76.25 111.743 75.8229 111.743 75.2812H112.852C112.852 75.8542 113.219 76.1354 113.954 76.125C114.688 76.125 115.055 75.8438 115.055 75.2812H116.165C116.165 75.8229 115.972 76.25 115.587 76.5625ZM117.798 86H116.415V79.7266H116.383L111.876 86H110.133V78.1562H111.508V84.4297H111.54L116.048 78.1562H117.798V86ZM130.275 86H128.9V79.4062H124.135V86H122.76V78.1562H130.275V86ZM133.417 89.2031H132.042V78.1562H133.417V79.3281H133.479C133.573 79.1823 133.721 79.026 133.924 78.8594C134.107 78.7135 134.302 78.5807 134.51 78.4609C134.734 78.3359 135.026 78.2292 135.385 78.1406C135.75 78.0469 136.117 78 136.487 78C137.669 78 138.659 78.375 139.456 79.125C140.247 79.8854 140.643 80.8698 140.643 82.0781C140.643 83.2969 140.247 84.2812 139.456 85.0312C138.659 85.7812 137.669 86.1562 136.487 86.1562C135.674 86.1562 135.013 86 134.503 85.6875C134.055 85.4115 133.75 85.1745 133.588 84.9766L133.479 84.8281H133.417V89.2031ZM138.448 84.0859C138.974 83.5599 139.237 82.8906 139.237 82.0781C139.237 81.276 138.974 80.6068 138.448 80.0703C137.911 79.5443 137.203 79.2812 136.323 79.2812C135.437 79.2812 134.732 79.5443 134.206 80.0703C133.68 80.6068 133.417 81.276 133.417 82.0781C133.417 82.9115 133.687 83.5859 134.229 84.1016C134.766 84.6224 135.463 84.8828 136.323 84.8828C137.208 84.8828 137.917 84.6172 138.448 84.0859ZM150.37 82.0781L150.323 82.7344H143.237C143.237 83.1823 143.503 83.651 144.034 84.1406C144.56 84.6354 145.266 84.8828 146.152 84.8828C146.803 84.8828 147.336 84.7604 147.753 84.5156C148.097 84.3073 148.336 84.1198 148.472 83.9531L148.534 83.8438H150.152C150.12 83.9219 150.086 84.0026 150.05 84.0859C149.982 84.2057 149.855 84.3906 149.667 84.6406C149.464 84.9062 149.227 85.1432 148.956 85.3516C148.696 85.5547 148.313 85.7396 147.808 85.9062C147.329 86.0729 146.777 86.1562 146.152 86.1562C144.855 86.1562 143.803 85.7865 142.995 85.0469C142.178 84.3073 141.769 83.3177 141.769 82.0781C141.769 80.849 142.175 79.862 142.987 79.1172C143.795 78.3724 144.823 78 146.073 78C147.313 78 148.342 78.3724 149.159 79.1172C149.967 79.862 150.37 80.849 150.37 82.0781ZM148.152 80.0234C147.631 79.5286 146.938 79.2812 146.073 79.2812C145.198 79.2812 144.506 79.5286 143.995 80.0234C143.48 80.5182 143.222 81.0052 143.222 81.4844H148.917C148.917 81.0052 148.662 80.5182 148.152 80.0234ZM157.34 83.9688H155.488L153.23 79.875H153.199V86H151.824V78.1562H153.769L156.41 82.9609L159.051 78.1562H161.004V86H159.629V79.875H159.598L157.34 83.9688ZM170.426 86H169.043V79.7266H169.012L164.504 86H162.762V78.1562H164.137V84.4297H164.168L168.676 78.1562H170.426V86ZM179.849 86H178.466V79.7266H178.435L173.927 86H172.185V78.1562H173.56V84.4297H173.591L178.099 78.1562H179.849V86ZM22.9794 92.7969H24.4794V100.078C24.4794 100.99 24.7945 101.667 25.4247 102.109C26.0601 102.557 26.8596 102.781 27.8231 102.781C28.7815 102.781 29.5783 102.557 30.2138 102.109C30.8492 101.661 31.1669 100.984 31.1669 100.078V92.7969H32.6747V100.156C32.6747 101.464 32.219 102.456 31.3075 103.133C30.3908 103.815 29.232 104.156 27.8309 104.156C26.4247 104.156 25.2632 103.815 24.3466 103.133C23.4351 102.456 22.9794 101.464 22.9794 100.156V92.7969ZM38.8472 96C39.1597 96 39.4357 96.0312 39.6753 96.0938L39.7847 96.1094V97.6172C39.4878 97.513 39.0946 97.4583 38.605 97.4531C37.7613 97.4531 37.0972 97.7214 36.6128 98.2578C36.1284 98.7943 35.8863 99.4661 35.8863 100.273V104H34.5113V96.1562H35.8863V97.6797H35.9644C36.0425 97.513 36.1701 97.3177 36.3472 97.0938C36.5086 96.8958 36.6883 96.724 36.8863 96.5781C37.1102 96.4219 37.3967 96.2865 37.7456 96.1719C38.0998 96.0573 38.467 96 38.8472 96ZM42.1994 104H40.8244V92.7969H42.1994V97.3281H42.2619C42.3556 97.1823 42.5041 97.026 42.7072 96.8594C42.8895 96.7135 43.0848 96.5807 43.2931 96.4609C43.5171 96.3359 43.8088 96.2292 44.1681 96.1406C44.5327 96.0469 44.8999 96 45.2697 96C46.452 96 47.4416 96.375 48.2384 97.125C49.0301 97.8854 49.4259 98.8698 49.4259 100.078C49.4259 101.297 49.0301 102.281 48.2384 103.031C47.4416 103.781 46.452 104.156 45.2697 104.156C44.4572 104.156 43.7957 104 43.2853 103.688C42.8374 103.411 42.5327 103.174 42.3713 102.977L42.2619 102.828H42.1994V104ZM47.2306 102.086C47.7567 101.56 48.0197 100.891 48.0197 100.078C48.0197 99.276 47.7567 98.6068 47.2306 98.0703C46.6942 97.5443 45.9858 97.2812 45.1056 97.2812C44.241 97.2812 43.5405 97.5391 43.0041 98.0547C42.4676 98.5703 42.1994 99.2448 42.1994 100.078C42.1994 100.891 42.4624 101.56 42.9884 102.086C43.5145 102.617 44.2202 102.883 45.1056 102.883C45.991 102.883 46.6994 102.617 47.2306 102.086ZM50.5516 101.805C50.5516 101.003 50.8927 100.409 51.575 100.023C52.2521 99.6432 53.1219 99.4531 54.1844 99.4531C54.726 99.4531 55.226 99.5182 55.6844 99.6484C56.1635 99.7839 56.4995 99.9115 56.6922 100.031L56.9969 100.227V98.9922C56.9969 98.4609 56.8016 98.0443 56.4109 97.7422C56.0203 97.4349 55.4318 97.2812 54.6453 97.2812C53.0776 97.2812 52.2938 97.7083 52.2938 98.5625H50.9188C50.924 97.6979 51.2755 97.0547 51.9734 96.6328C52.6662 96.2109 53.5568 96 54.6453 96C55.7391 96 56.6323 96.2552 57.325 96.7656C58.0177 97.2812 58.3667 98.0234 58.3719 98.9922V101.844C58.3719 102.24 58.424 102.516 58.5281 102.672C58.6323 102.823 58.8042 102.898 59.0438 102.898C59.2521 102.898 59.3901 102.87 59.4578 102.812L59.4891 102.797V104.031C59.3276 104.115 59.0932 104.156 58.7859 104.156C58.2651 104.156 57.8797 104.044 57.6297 103.82C57.4318 103.654 57.2859 103.479 57.1922 103.297L57.1531 103.203H57.0906C56.9604 103.333 56.8276 103.443 56.6922 103.531C56.5307 103.641 56.3537 103.737 56.1609 103.82C55.6505 104.044 55.0281 104.156 54.2938 104.156C53.1844 104.156 52.2833 103.966 51.5906 103.586C50.8979 103.211 50.5516 102.617 50.5516 101.805ZM54.4969 100.734C52.8042 100.734 51.9578 101.091 51.9578 101.805C51.9578 102.523 52.8042 102.883 54.4969 102.883C54.9969 102.883 55.4526 102.828 55.8641 102.719C56.2703 102.62 56.549 102.526 56.7 102.438C56.8406 102.365 56.9396 102.299 56.9969 102.242V101.344C56.9396 101.286 56.8406 101.221 56.7 101.148C56.5229 101.065 56.2469 100.977 55.8719 100.883C55.4708 100.784 55.0125 100.734 54.4969 100.734ZM68.2397 104H66.8647V99.9531C66.8647 99.0365 66.6329 98.362 66.1694 97.9297C65.7058 97.4974 65.0834 97.2812 64.3022 97.2812C63.4793 97.2812 62.8491 97.526 62.4116 98.0156C61.9689 98.5052 61.7475 99.151 61.7475 99.9531V104H60.3725V96.1562H61.7475V97.3594H61.8256C61.935 97.1823 62.0626 97.0234 62.2084 96.8828C62.3803 96.7266 62.56 96.5885 62.7475 96.4688C62.961 96.3385 63.2449 96.2292 63.5991 96.1406C63.9532 96.0469 64.323 96 64.7084 96C65.7189 96 66.5626 96.3021 67.2397 96.9062C67.9064 97.5156 68.2397 98.4245 68.2397 99.6328V104ZM76.7331 92.7969H78.7331L83.3113 104H81.7253L80.7175 101.539H74.7488L73.7409 104H72.1628L76.7331 92.7969ZM75.2956 100.195H80.1628L77.78 94.1562H77.6941L75.2956 100.195ZM92.9916 104H91.1556L89.14 97.6328H89.0697L87.0541 104H85.2181L82.8978 96.1562H84.2884L86.1322 102.492H86.1947L88.2103 96.1562H89.9994L92.015 102.492H92.0853L93.9212 96.1562H95.3119L92.9916 104ZM95.8828 101.805C95.8828 101.003 96.224 100.409 96.9062 100.023C97.5833 99.6432 98.4531 99.4531 99.5156 99.4531C100.057 99.4531 100.557 99.5182 101.016 99.6484C101.495 99.7839 101.831 99.9115 102.023 100.031L102.328 100.227V98.9922C102.328 98.4609 102.133 98.0443 101.742 97.7422C101.352 97.4349 100.763 97.2812 99.9766 97.2812C98.4089 97.2812 97.625 97.7083 97.625 98.5625H96.25C96.2552 97.6979 96.6068 97.0547 97.3047 96.6328C97.9974 96.2109 98.888 96 99.9766 96C101.07 96 101.964 96.2552 102.656 96.7656C103.349 97.2812 103.698 98.0234 103.703 98.9922V101.844C103.703 102.24 103.755 102.516 103.859 102.672C103.964 102.823 104.135 102.898 104.375 102.898C104.583 102.898 104.721 102.87 104.789 102.812L104.82 102.797V104.031C104.659 104.115 104.424 104.156 104.117 104.156C103.596 104.156 103.211 104.044 102.961 103.82C102.763 103.654 102.617 103.479 102.523 103.297L102.484 103.203H102.422C102.292 103.333 102.159 103.443 102.023 103.531C101.862 103.641 101.685 103.737 101.492 103.82C100.982 104.044 100.359 104.156 99.625 104.156C98.5156 104.156 97.6146 103.966 96.9219 103.586C96.2292 103.211 95.8828 102.617 95.8828 101.805ZM99.8281 100.734C98.1354 100.734 97.2891 101.091 97.2891 101.805C97.2891 102.523 98.1354 102.883 99.8281 102.883C100.328 102.883 100.784 102.828 101.195 102.719C101.602 102.62 101.88 102.526 102.031 102.438C102.172 102.365 102.271 102.299 102.328 102.242V101.344C102.271 101.286 102.172 101.221 102.031 101.148C101.854 101.065 101.578 100.977 101.203 100.883C100.802 100.784 100.344 100.734 99.8281 100.734ZM110.04 96C110.352 96 110.628 96.0312 110.868 96.0938L110.977 96.1094V97.6172C110.68 97.513 110.287 97.4583 109.798 97.4531C108.954 97.4531 108.29 97.7214 107.805 98.2578C107.321 98.7943 107.079 99.4661 107.079 100.273V104H105.704V96.1562H107.079V97.6797H107.157C107.235 97.513 107.363 97.3177 107.54 97.0938C107.701 96.8958 107.881 96.724 108.079 96.5781C108.303 96.4219 108.589 96.2865 108.938 96.1719C109.292 96.0573 109.659 96 110.04 96ZM118.595 92.7969H119.97V104H118.595V102.828H118.533C118.449 102.964 118.301 103.12 118.087 103.297C117.905 103.443 117.71 103.576 117.501 103.695C117.277 103.82 116.983 103.927 116.618 104.016C116.259 104.109 115.894 104.156 115.525 104.156C114.342 104.156 113.355 103.781 112.564 103.031C111.767 102.281 111.368 101.297 111.368 100.078C111.368 98.8698 111.767 97.8854 112.564 97.125C113.355 96.375 114.342 96 115.525 96C116.16 96 116.725 96.112 117.22 96.3359C117.715 96.5599 118.061 96.7786 118.259 96.9922L118.533 97.3281H118.595V92.7969ZM113.572 98.0703C113.04 98.6016 112.775 99.2708 112.775 100.078C112.775 100.891 113.04 101.56 113.572 102.086C114.098 102.617 114.803 102.883 115.689 102.883C116.574 102.883 117.28 102.617 117.806 102.086C118.332 101.56 118.595 100.891 118.595 100.078C118.595 99.2448 118.327 98.5703 117.79 98.0547C117.254 97.5391 116.553 97.2812 115.689 97.2812C114.803 97.2812 114.098 97.5443 113.572 98.0703ZM127.65 101.68C127.65 101.372 127.502 101.135 127.205 100.969C126.898 100.797 126.525 100.701 126.088 100.68C125.635 100.654 125.148 100.607 124.627 100.539C124.064 100.471 123.575 100.391 123.158 100.297C122.71 100.203 122.338 99.9922 122.041 99.6641C121.739 99.3411 121.588 98.9089 121.588 98.3672C121.588 97.5807 121.924 96.987 122.596 96.5859C123.268 96.1953 124.137 96 125.205 96C126.288 96 127.163 96.2188 127.83 96.6562C128.491 97.0938 128.822 97.7812 128.822 98.7188H127.416C127.416 98.2292 127.239 97.8672 126.885 97.6328C126.536 97.3984 125.976 97.2812 125.205 97.2812C123.731 97.2812 122.994 97.6432 122.994 98.3672C122.994 98.6641 123.145 98.8906 123.447 99.0469C123.749 99.2083 124.122 99.2995 124.564 99.3203C124.976 99.3411 125.465 99.3854 126.033 99.4531C126.57 99.526 127.057 99.612 127.494 99.7109C127.937 99.8203 128.312 100.039 128.619 100.367C128.916 100.706 129.064 101.143 129.064 101.68C129.064 102.263 128.879 102.747 128.51 103.133C128.145 103.513 127.687 103.779 127.135 103.93C126.598 104.081 125.965 104.156 125.236 104.156C123.71 104.156 122.622 103.781 121.971 103.031C121.601 102.604 121.416 102.073 121.416 101.438V101.188H122.822V101.438C122.822 102.396 123.627 102.875 125.236 102.875C126.846 102.885 127.65 102.487 127.65 101.68ZM142.425 104H133.386V102.812C133.386 102.307 133.519 101.841 133.784 101.414C134.055 100.982 134.417 100.617 134.87 100.32C135.511 99.9036 136.532 99.3932 137.933 98.7891C138.365 98.6068 138.74 98.4297 139.058 98.2578C139.376 98.0859 139.68 97.888 139.972 97.6641C140.264 97.4349 140.485 97.1849 140.636 96.9141C140.792 96.638 140.87 96.3438 140.87 96.0312C140.87 95.3646 140.628 94.862 140.144 94.5234C139.659 94.1849 138.959 94.0156 138.042 94.0156C136.157 94.0156 135.211 94.7682 135.206 96.2734V96.5938H133.706V96.2734C133.706 95.1328 134.097 94.2422 134.878 93.6016C135.649 92.9609 136.704 92.6406 138.042 92.6406C139.36 92.6406 140.415 92.9427 141.206 93.5469C141.988 94.1562 142.378 94.9844 142.378 96.0312C142.378 96.5677 142.245 97.0703 141.98 97.5391C141.714 98.0078 141.355 98.401 140.902 98.7188C140.183 99.2344 139.18 99.763 137.894 100.305C137.441 100.492 137.063 100.659 136.761 100.805C136.464 100.951 136.165 101.122 135.863 101.32C135.56 101.518 135.334 101.729 135.183 101.953C135.037 102.172 134.964 102.406 134.964 102.656H142.425V104ZM152.73 102.539C151.819 103.617 150.569 104.156 148.98 104.156C147.392 104.156 146.142 103.617 145.23 102.539C144.314 101.466 143.855 100.086 143.855 98.3984C143.855 96.7214 144.314 95.3411 145.23 94.2578C146.142 93.1797 147.392 92.6406 148.98 92.6406C150.569 92.6406 151.819 93.1797 152.73 94.2578C153.642 95.3307 154.098 96.7109 154.098 98.3984C154.098 100.091 153.642 101.471 152.73 102.539ZM152.527 98.3984C152.527 97.112 152.22 96.0599 151.605 95.2422C150.991 94.4245 150.116 94.0156 148.98 94.0156C147.845 94.0156 146.97 94.4245 146.355 95.2422C145.736 96.0651 145.426 97.1172 145.426 98.3984C145.426 99.6745 145.736 100.724 146.355 101.547C146.975 102.37 147.85 102.781 148.98 102.781C150.111 102.781 150.986 102.37 151.605 101.547C152.22 100.729 152.527 99.6797 152.527 98.3984ZM157.622 94.6562L155.223 96.5469V94.8516L157.754 92.7969H159.129V104H157.622V94.6562ZM161.13 100.977H162.693C162.729 101.133 162.831 101.346 162.997 101.617C163.138 101.846 163.291 102.031 163.458 102.172C163.646 102.349 163.911 102.5 164.255 102.625C164.604 102.75 164.979 102.812 165.38 102.812C166.432 102.812 167.234 102.443 167.786 101.703C168.338 100.964 168.614 100 168.614 98.8125H168.568C168.489 98.9375 168.346 99.0859 168.138 99.2578C167.956 99.4089 167.755 99.5391 167.536 99.6484C167.328 99.7578 167.018 99.862 166.607 99.9609C166.216 100.06 165.786 100.109 165.318 100.109C164.052 100.109 163.01 99.7604 162.193 99.0625C161.375 98.3698 160.966 97.4766 160.966 96.3828C160.966 95.2422 161.375 94.3333 162.193 93.6562C163 92.9792 164.086 92.6406 165.45 92.6406C167.008 92.6406 168.187 93.1172 168.989 94.0703C169.786 95.0339 170.185 96.3594 170.185 98.0469V98.5469C170.185 100.766 169.484 102.372 168.083 103.367C167.338 103.893 166.437 104.156 165.38 104.156C164.812 104.156 164.278 104.078 163.778 103.922C163.284 103.76 162.872 103.549 162.544 103.289C162.226 103.039 161.958 102.763 161.739 102.461C161.333 101.909 161.13 101.414 161.13 100.977ZM167.56 94.6406C167.023 94.2031 166.32 93.9844 165.45 93.9844C164.575 93.9844 163.872 94.2031 163.341 94.6406C162.804 95.0781 162.536 95.6589 162.536 96.3828C162.536 97.1068 162.81 97.6849 163.357 98.1172C163.898 98.5495 164.596 98.7656 165.45 98.7656C166.294 98.7656 166.992 98.5495 167.544 98.1172C168.086 97.6849 168.357 97.1068 168.357 96.3828C168.357 95.6589 168.091 95.0781 167.56 94.6406Z" fill="#1A1A1A"/>
</svg>
